<?xml version="1.0" standalone="no"?>
<!DOCTYPE svg PUBLIC "-//W3C//DTD SVG 20010904//EN"
 "http://www.w3.org/TR/2001/REC-SVG-20010904/DTD/svg10.dtd">
<svg version="1.0" xmlns="http://www.w3.org/2000/svg"
 width="32.000000pt" height="33.000000pt" viewBox="0 0 32.000000 33.000000"
 preserveAspectRatio="xMidYMid meet">

<g transform="translate(0.000000,33.000000) scale(0.100000,-0.100000)"
fill="#000000" stroke="none">
<path d="M157 276 c-69 -29 -91 -46 -108 -87 -10 -26 -9 -36 4 -65 9 -19 22
-34 29 -34 7 0 2 -9 -11 -19 -16 -12 -20 -20 -12 -25 19 -12 78 40 112 97 24
42 28 46 23 22 -3 -16 -14 -47 -24 -67 -20 -42 -17 -48 19 -48 88 0 118 138
48 223 l-22 27 -58 -24z"/>
</g>
</svg>
